<svg version="1.1" xmlns="http://www.w3.org/2000/svg" xmlns:xlink="http://www.w3.org/1999/xlink" width="743" height="211" viewBox="0 0 743 211"><defs/><g transform="matrix(1,0,0,1,0,0)"><g><g><g><path fill="none" stroke="#d3d3d3" paint-order="fill stroke markers" d=" M 0 0 L 1200 0" stroke-miterlimit="10" stroke-opacity="0.8" stroke-dasharray="5"/></g><g><path fill="none" stroke="#d3d3d3" paint-order="fill stroke markers" d=" M 0 0 L 0 800" stroke-miterlimit="10" stroke-opacity="0.8" stroke-dasharray="5"/></g></g><g id="_3EA2922D-8B02-4B55-A524-988F13C67204" bpmn2nodeid="_3EA2922D-8B02-4B55-A524-988F13C67204" transform="matrix(1,0,0,1,327,103)"><g><path fill="none" stroke="none"/></g><g transform="matrix(0.125,0,0,0.125,0,0)"><g transform="matrix(1,0,0,1,0,0)"><path fill="#fbefcf" stroke="none" id="_3EA2922D-8B02-4B55-A524-988F13C67204?shapeType=BACKGROUND" paint-order="stroke fill markers" d=" M 0 0 M 444 224 C 444 263.9 434.2 300.8 414.4 334.5 C 394.7 368.2 368 394.9 334.4 414.5 C 300.79999999999995 434.1 263.9 444 224 444 C 184.10000000000002 444 147.2 434.2 113.5 414.4 C 79.8 394.7 53.1 368 33.5 334.4 C 13.899999999999999 300.79999999999995 4 263.9 4 224 C 4 184.10000000000002 13.8 147.2 33.6 113.5 C 53.400000000000006 79.80000000000001 80.1 53.1 113.6 33.5 C 147.1 13.899999999999999 184.1 4 224 4 C 263.9 4 300.8 13.8 334.5 33.6 C 368.2 53.400000000000006 394.9 80.1 414.5 113.6 C 434.1 147.1 444 184.1 444 224 Z"/></g><g><g transform="matrix(1,0,0,1,0,0)"><g transform="matrix(1,0,0,1,0,0)"><path fill="rgb(229,160,0)" stroke="none" id="_3EA2922D-8B02-4B55-A524-988F13C67204?shapeType=BORDER&amp;renderType=FILL" paint-order="stroke fill markers" d=" M 0 0 M 224 408 C 122.5 408 40 325.5 40 224 C 40 122.5 122.5 40 224 40 C 325.5 40 408 122.5 408 224 C 408 325.5 325.5 408 224 408 Z M 0 0 M 224 56 C 131.4 56 56 131.4 56 224 C 56 316.6 131.4 392 224 392 C 316.6 392 392 316.6 392 224 C 392 131.39999999999998 316.6 56 224 56 Z M 0 0 M 224 16 C 252.1 16 279.3 21.5 305 32.3 C 329.8 42.8 352 57.8 371.1 76.9 C 390.20000000000005 96.00000000000001 405.20000000000005 118.30000000000001 415.70000000000005 143 C 426.50000000000006 168.6 432.00000000000006 195.9 432.00000000000006 224 C 432.00000000000006 252.1 426.50000000000006 279.3 415.70000000000005 305 C 405.20000000000005 329.8 390.20000000000005 352 371.1 371.1 C 352 390.20000000000005 329.70000000000005 405.20000000000005 305 415.70000000000005 C 279.4 426.50000000000006 252.1 432.00000000000006 224 432.00000000000006 C 195.9 432.00000000000006 168.7 426.50000000000006 143 415.70000000000005 C 118.2 405.20000000000005 96 390.20000000000005 76.9 371.1 C 57.80000000000001 352 42.8 329.7 32.3 305 C 21.5 279.3 16 252.1 16 224 C 16 195.9 21.5 168.7 32.3 143 C 42.8 118.2 57.8 96 76.9 76.9 C 96.00000000000001 57.80000000000001 118.30000000000001 42.800000000000004 143 32.300000000000004 C 168.7 21.5 195.9 16 224 16 M 224 0 C 100.3 0 0 100.3 0 224 C 0 347.7 100.3 448 224 448 C 347.7 448 448 347.7 448 224 C 448 100.30000000000001 347.7 0 224 0 L 224 0 Z"/></g></g></g><g><g transform="matrix(1,0,0,1,0,0)"><g transform="matrix(1,0,0,1,0,0)"><path fill="#e5a000" stroke="none" id="_3EA2922D-8B02-4B55-A524-988F13C67204_signal-catching" paint-order="stroke fill markers" d=" M 0 0 M 224.6 124.8 L 320.5 300.7 L 128.8 300.7 L 224.6 124.8 M 224.6 108.7 C 221.7 108.7 219 109.5 216.5 110.9 C 214 112.30000000000001 212.1 114.5 210.6 117 L 114.69999999999999 293 C 111.79999999999998 298.2 111.89999999999999 303.5 114.89999999999999 308.8 C 116.3 311.2 118.19999999999999 313.2 120.69999999999999 314.6 C 123.1 316 125.79999999999998 316.70000000000005 128.7 316.70000000000005 L 320.5 316.70000000000005 C 323.4 316.70000000000005 325.9 316.00000000000006 328.4 314.6 C 330.9 313.20000000000005 332.79999999999995 311.3 334.2 308.8 C 337.3 303.6 337.3 298.3 334.4 293 L 238.49999999999997 117 C 237.09999999999997 114.4 235.19999999999996 112.4 232.69999999999996 110.9 C 230.2 109.4 227.5 108.7 224.6 108.7 L 224.6 108.7 Z"/></g></g></g></g><g transform="matrix(1,0,0,1,28,61)"/></g><g id="_2BDF0EEF-FF2C-45A4-A77E-6C0501685E3F" bpmn2nodeid="_2BDF0EEF-FF2C-45A4-A77E-6C0501685E3F" transform="matrix(1,0,0,1,441,101)"><g><path fill="none" stroke="none"/></g><g transform="matrix(1,0,0,1,0,0)"><path fill="#ffffff" stroke="none" id="_2BDF0EEF-FF2C-45A4-A77E-6C0501685E3F?shapeType=BACKGROUND" paint-order="stroke fill markers" d=" M 2 0 L 114 0 L 114 0 A 2 2 0 0 1 116 2 L 116 58 L 116 58 A 2 2 0 0 1 114 60 L 2 60 L 2 60 A 2 2 0 0 1 0 58 L 0 2 L 0 2.0000000000000004 A 2 2 0 0 1 1.9999999999999996 0 Z"/></g><g transform="matrix(1,0,0,1,0,0)"><path fill="none" stroke="rgb(255,0,0)" id="_2BDF0EEF-FF2C-45A4-A77E-6C0501685E3F?shapeType=BORDER&amp;renderType=STROKE" paint-order="fill stroke markers" d=" M 2 0 L 114 0 L 114 0 A 2 2 0 0 1 116 2 L 116 58 L 116 58 A 2 2 0 0 1 114 60 L 2 60 L 2 60 A 2 2 0 0 1 0 58 L 0 2 L 0 2.0000000000000004 A 2 2 0 0 1 1.9999999999999996 0 Z" stroke-miterlimit="10" stroke-width="1.5" stroke-dasharray=""/></g><g><g transform="matrix(0.06,0,0,0.06,9.4,9.4)"><g transform="matrix(1,0,0,1,0,0)"><path fill="#393f44" stroke="none" id="_2BDF0EEF-FF2C-45A4-A77E-6C0501685E3F_task__l39e__3KHJ" paint-order="stroke fill markers" d=" M 0 0 M 128 344 L 128 296 C 128 293.7 127.2 291.8 125.8 290.2 C 124.39999999999999 288.59999999999997 122.39999999999999 288 120 288 L 40 288 C 37.7 288 35.8 288.8 34.2 290.2 C 32.60000000000001 291.59999999999997 32 293.7 32 296 L 32 344 C 32 346.3 32.8 348.2 34.2 349.8 C 35.60000000000001 351.40000000000003 37.6 352 40 352 L 120 352 C 122.3 352 124.2 351.2 125.8 349.8 C 127.39999999999999 348.40000000000003 128 346.3 128 344 Z M 0 0 M 128 248 L 128 200 C 128 197.7 127.2 195.8 125.8 194.2 C 124.39999999999999 192.59999999999997 122.39999999999999 192 120 192 L 40 192 C 37.7 192 35.8 192.8 34.2 194.2 C 32.60000000000001 195.59999999999997 32 197.7 32 200 L 32 248 C 32 250.3 32.8 252.2 34.2 253.8 C 35.60000000000001 255.40000000000003 37.6 256 40 256 L 120 256 C 122.3 256 124.2 255.2 125.8 253.8 C 127.39999999999999 252.40000000000003 128 250.3 128 248 Z M 0 0 M 376 352 C 378.3 352 380.2 351.2 381.8 349.8 C 383.40000000000003 348.40000000000003 384 346.40000000000003 384 344 L 384 296 C 384 293.7 383.2 291.8 381.8 290.2 C 380.40000000000003 288.59999999999997 378.40000000000003 288 376 288 L 168 288 C 165.7 288 163.8 288.8 162.2 290.2 C 160.59999999999997 291.59999999999997 160 293.59999999999997 160 296 L 160 344 C 160 346.3 160.8 348.2 162.2 349.8 C 163.59999999999997 351.40000000000003 165.6 352 168 352 L 376 352 Z M 0 0 M 128 152 L 128 104 C 128 101.7 127.2 99.8 125.8 98.2 C 124.39999999999999 96.60000000000001 122.3 96 120 96 L 40 96 C 37.7 96 35.8 96.8 34.2 98.2 C 32.60000000000001 99.60000000000001 32 101.7 32 104 L 32 152 C 32 154.3 32.8 156.2 34.2 157.8 C 35.60000000000001 159.40000000000003 37.6 160 40 160 L 120 160 C 122.3 160 124.2 159.2 125.8 157.8 C 127.39999999999999 156.40000000000003 128 154.3 128 152 Z M 0 0 M 376 256 C 378.3 256 380.2 255.2 381.8 253.8 C 383.40000000000003 252.40000000000003 384 250.4 384 248 L 384 200 C 384 197.7 383.2 195.8 381.8 194.2 C 380.40000000000003 192.59999999999997 378.40000000000003 192 376 192 L 168 192 C 165.7 192 163.8 192.8 162.2 194.2 C 160.59999999999997 195.59999999999997 160 197.6 160 200 L 160 248 C 160 250.3 160.8 252.2 162.2 253.8 C 163.59999999999997 255.40000000000003 165.6 256 168 256 L 376 256 Z M 0 0 M 376 160 C 378.3 160 380.2 159.2 381.8 157.8 C 383.40000000000003 156.40000000000003 384 154.4 384 152 L 384 104 C 384 101.7 383.2 99.8 381.8 98.2 C 380.40000000000003 96.60000000000001 378.3 96 376 96 L 168 96 C 165.7 96 163.8 96.8 162.2 98.2 C 160.59999999999997 99.60000000000001 160 101.60000000000001 160 104 L 160 152 C 160 154.3 160.8 156.2 162.2 157.8 C 163.59999999999997 159.40000000000003 165.6 160 168 160 L 376 160 Z M 0 0 M 416 72 L 416 344 C 416 355 412.1 364.4 404.2 372.2 C 396.29999999999995 380 387 384 376 384 L 40 384 C 29 384 19.6 380.1 11.8 372.2 C 4 364.29999999999995 0 355 0 344 L 0 72 C 0 61 3.9 51.6 11.8 43.8 C 19.700000000000003 35.99999999999999 29 32 40 32 L 376 32 C 387 32 396.4 35.9 404.2 43.8 C 412 51.699999999999996 416 61 416 72 Z"/></g></g></g><g transform="matrix(1,0,0,1,41.75,22.5)"><text fill="#000000" stroke="none" font-family="Open Sans" font-size="12pt" font-style="normal" font-weight="normal" text-decoration="normal" x="16.25" y="12" text-anchor="middle" dominant-baseline="alphabetic">Task</text></g></g><g id="_CCE75B61-FE73-4E6C-9A32-277E2DD53C0C" bpmn2nodeid="_CCE75B61-FE73-4E6C-9A32-277E2DD53C0C" transform="matrix(1,0,0,1,637,103)"><g><path fill="none" stroke="none"/></g><g transform="matrix(0.125,0,0,0.125,0,0)"><g transform="matrix(1,0,0,1,0,0)"><path fill="#fce7e7" stroke="none" id="_CCE75B61-FE73-4E6C-9A32-277E2DD53C0C?shapeType=BACKGROUND" paint-order="stroke fill markers" d=" M 0 0 M 444 224 C 444 263.9 434.2 300.8 414.4 334.5 C 394.7 368.2 368 394.9 334.4 414.5 C 300.79999999999995 434.1 263.9 444 224 444 C 184.10000000000002 444 147.2 434.2 113.5 414.4 C 79.8 394.7 53.1 368 33.5 334.4 C 13.899999999999999 300.79999999999995 4 263.9 4 224 C 4 184.10000000000002 13.8 147.2 33.6 113.5 C 53.400000000000006 79.80000000000001 80.1 53.1 113.6 33.5 C 147.1 13.899999999999999 184.1 4 224 4 C 263.9 4 300.8 13.8 334.5 33.6 C 368.2 53.400000000000006 394.9 80.1 414.5 113.6 C 434.1 147.1 444 184.1 444 224 Z"/></g><g><g transform="matrix(1,0,0,1,0,0)"><g transform="matrix(1,0,0,1,0,0)"><path fill="#a30000" stroke="none" id="_CCE75B61-FE73-4E6C-9A32-277E2DD53C0C?shapeType=BORDER&amp;renderType=FILL" paint-order="stroke fill markers" d=" M 0 0 M 224 0 C 100.3 0 0 100.3 0 224 C 0 347.7 100.3 448 224 448 C 347.7 448 448 347.7 448 224 C 448 100.30000000000001 347.7 0 224 0 Z M 0 0 M 224 400 C 126.8 400 48 321.2 48 224 C 48 126.80000000000001 126.8 48 224 48 C 321.2 48 400 126.8 400 224 C 400 321.2 321.2 400 224 400 Z"/></g></g></g></g><g transform="matrix(1,0,0,1,28,61)"/></g><g id="_39124A5B-B2BC-4FD3-8AAA-FC8A69460207" bpmn2nodeid="_39124A5B-B2BC-4FD3-8AAA-FC8A69460207"><g><path fill="none" stroke="#000000" paint-order="fill stroke markers" d=" M 383 131 L 426 131" stroke-miterlimit="10" stroke-dasharray=""/></g><g transform="matrix(1,0,0,1,383,131)"/><g transform="matrix(6.123233995736766e-17,1,-1,6.123233995736766e-17,441,126)"><path fill="#000000" stroke="#000000" paint-order="fill stroke markers" d=" M 10 15 L 0 15 L 5 0 Z" stroke-miterlimit="10" stroke-dasharray=""/></g><g transform="matrix(1,0,0,1,383,121)"/></g><g id="_0293F84B-2AA5-48DD-A203-B130595EBCED" bpmn2nodeid="_0293F84B-2AA5-48DD-A203-B130595EBCED"><g><path fill="none" stroke="#000000" paint-order="fill stroke markers" d=" M 557 131 L 622 131" stroke-miterlimit="10" stroke-dasharray=""/></g><g transform="matrix(1,0,0,1,557,131)"/><g transform="matrix(6.123233995736766e-17,1,-1,6.123233995736766e-17,637,126)"><path fill="#000000" stroke="#000000" paint-order="fill stroke markers" d=" M 10 15 L 0 15 L 5 0 Z" stroke-miterlimit="10" stroke-dasharray=""/></g><g transform="matrix(1,0,0,1,557,121)"/></g><g transform="matrix(1,0,0,1,327,103)"/><g transform="matrix(1,0,0,1,441,101)"/><g transform="matrix(1,0,0,1,637,103)"/><g id="_118C98FF-ADC5-43AF-BF00-AD5903DABE07" bpmn2nodeid="_118C98FF-ADC5-43AF-BF00-AD5903DABE07" transform="matrix(1,0,0,1,67,101)"><g><path fill="none" stroke="none"/></g><g transform="matrix(0.125,0,0,0.125,0,0)"><g transform="matrix(1,0,0,1,0,0)"><path fill="#e8fae6" stroke="none" id="_118C98FF-ADC5-43AF-BF00-AD5903DABE07?shapeType=BACKGROUND" paint-order="stroke fill markers" d=" M 0 0 M 444 224 C 444 263.9 434.2 300.8 414.4 334.5 C 394.7 368.2 368 394.9 334.4 414.5 C 300.79999999999995 434.1 263.9 444 224 444 C 184.10000000000002 444 147.2 434.2 113.5 414.4 C 79.8 394.7 53.1 368 33.5 334.4 C 13.899999999999999 300.79999999999995 4 263.9 4 224 C 4 184.10000000000002 13.8 147.2 33.6 113.5 C 53.400000000000006 79.80000000000001 80.1 53.1 113.6 33.5 C 147.1 13.899999999999999 184.1 4 224 4 C 263.9 4 300.8 13.8 334.5 33.6 C 368.2 53.400000000000006 394.9 80.1 414.5 113.6 C 434.1 147.1 444 184.1 444 224 Z"/></g><g><g transform="matrix(1,0,0,1,0,0)"><g transform="matrix(1,0,0,1,0,0)"><path fill="rgb(74,162,65)" stroke="none" id="_118C98FF-ADC5-43AF-BF00-AD5903DABE07?shapeType=BORDER&amp;renderType=FILL" paint-order="stroke fill markers" d=" M 0 0 M 224 0 C 100.3 0 0 100.3 0 224 C 0 347.7 100.3 448 224 448 C 347.7 448 448 347.7 448 224 C 448 100.30000000000001 347.7 0 224 0 Z M 0 0 M 224 432 C 109.1 432 16 338.9 16 224 C 16 109.10000000000002 109.1 16 224 16 C 338.9 16 432 109.1 432 224 C 432 338.9 338.9 432 224 432 Z"/></g></g></g></g><g transform="matrix(1,0,0,1,28,61)"/></g><g transform="matrix(1,0,0,1,67,101)"/><g id="_305A9987-77E0-4558-B246-CCD937802026" bpmn2nodeid="_305A9987-77E0-4558-B246-CCD937802026" transform="matrix(1,0,0,1,179,100)"><g><path fill="none" stroke="none"/></g><g transform="matrix(1,0,0,1,0,0)"><path fill="#ffffff" stroke="none" id="_305A9987-77E0-4558-B246-CCD937802026?shapeType=BACKGROUND" paint-order="stroke fill markers" d=" M 2 0 L 101 0 L 101 0 A 2 2 0 0 1 103 2 L 103 59 L 103 59 A 2 2 0 0 1 101 61 L 2 61 L 2 61 A 2 2 0 0 1 0 59 L 0 2 L 0 2.0000000000000004 A 2 2 0 0 1 1.9999999999999996 0 Z"/></g><g transform="matrix(1,0,0,1,0,0)"><path fill="none" stroke="rgb(0,136,206)" id="_305A9987-77E0-4558-B246-CCD937802026?shapeType=BORDER&amp;renderType=STROKE" paint-order="fill stroke markers" d=" M 2 0 L 101 0 L 101 0 A 2 2 0 0 1 103 2 L 103 59 L 103 59 A 2 2 0 0 1 101 61 L 2 61 L 2 61 A 2 2 0 0 1 0 59 L 0 2 L 0 2.0000000000000004 A 2 2 0 0 1 1.9999999999999996 0 Z" stroke-miterlimit="10" stroke-width="1.5" stroke-dasharray=""/></g><g><g transform="matrix(0.06,0,0,0.06,9.4,9.4)"><g transform="matrix(1,0,0,1,0,0)"><path fill="#393f44" stroke="none" id="_305A9987-77E0-4558-B246-CCD937802026_task__FQFd__KwNe" paint-order="stroke fill markers" d=" M 0 0 M 197.3 130.2 C 194.4 127.29999999999998 189.60000000000002 127.29999999999998 186.70000000000002 130.2 L 130.20000000000002 186.7 C 127.30000000000001 189.6 127.30000000000001 194.39999999999998 130.20000000000002 197.29999999999998 L 186.70000000000002 253.79999999999998 C 188.10000000000002 255.29999999999998 190.10000000000002 255.99999999999997 192.00000000000003 255.99999999999997 C 193.90000000000003 255.99999999999997 195.90000000000003 255.29999999999998 197.30000000000004 253.69999999999996 C 200.20000000000005 250.79999999999995 200.20000000000005 245.99999999999997 197.30000000000004 243.09999999999997 L 146.2 192 L 197.29999999999998 140.8 C 200.2 137.9 200.2 133.1 197.3 130.2 Z"/></g><g transform="matrix(1,0,0,1,0,0)"><path fill="#393f44" stroke="none" id="_305A9987-77E0-4558-B246-CCD937802026_task__FQFd__W91P" paint-order="stroke fill markers" d=" M 0 0 M 261.3 130.2 C 258.40000000000003 127.29999999999998 253.60000000000002 127.29999999999998 250.70000000000002 130.2 C 247.8 133.1 247.8 137.89999999999998 250.70000000000002 140.79999999999998 L 301.8 191.89999999999998 L 250.7 243 C 247.79999999999998 245.9 247.79999999999998 250.7 250.7 253.6 C 252.1 255.29999999999998 254.1 256 256 256 C 257.9 256 259.9 255.3 261.3 253.8 L 317.8 197.3 C 320.7 194.4 320.7 189.60000000000002 317.8 186.70000000000002 L 261.3 130.2 Z"/></g><g transform="matrix(1,0,0,1,0,0)"><path fill="#393f44" stroke="none" id="_305A9987-77E0-4558-B246-CCD937802026_task__FQFd__wKhe" paint-order="stroke fill markers" d=" M 0 0 M 400 32 C 400 32 152.8 32 128 32 C 62 32 64 96 64 96 L 64 288 L 1 288 C 1 288 -4 416 78 416 L 320 416 C 368 416 384 368 384 336 C 384 314.2 384 224.4 384 160 L 448 160 L 448 96 C 448 96 449 32 400 32 Z M 0 0 M 78 383.9 C 68.5 383.9 61.6 381.09999999999997 55.5 374.9 C 43.4 362.4 37.5 339.59999999999997 34.9 320 L 256.9 320 C 257.09999999999997 322.7 257.29999999999995 325.4 257.59999999999997 328.2 C 259.99999999999994 351.59999999999997 264.7 370.09999999999997 271.9 383.9 L 78 383.9 L 78 383.9 Z M 0 0 M 352 336 C 352 345.9 349.6 360.3 342.9 371 C 337.2 380.1 330.4 384 320 384 C 285 384 288 288 288 288 L 96 288 L 96 96 L 96 95.9 L 96 95.10000000000001 C 96 90.60000000000001 97.6 78.30000000000001 104.7 71.20000000000002 C 106.5 69.40000000000002 111.9 64.00000000000001 128 64.00000000000001 L 356.5 64.00000000000001 C 354.4 72.80000000000001 352.8 81.80000000000001 352.2 89.9 C 352.2 90.5 352.09999999999997 91.10000000000001 352.09999999999997 91.7 C 352.09999999999997 92 352.09999999999997 92.3 352.09999999999997 92.60000000000001 C 352 94.8 352 96 352 96 L 352 160 L 352 336 Z"/></g></g></g><g transform="matrix(1,0,0,1,35,8)"><text fill="#000000" stroke="none" font-family="Open Sans" font-size="12pt" font-style="normal" font-weight="normal" text-decoration="normal" x="29.16796875" y="12" text-anchor="middle" dominant-baseline="alphabetic">validate</text><text fill="#000000" stroke="none" font-family="Open Sans" font-size="12pt" font-style="normal" font-weight="normal" text-decoration="normal" x="29.16796875" y="27" text-anchor="middle" dominant-baseline="alphabetic">    the    </text><text fill="#000000" stroke="none" font-family="Open Sans" font-size="12pt" font-style="normal" font-weight="normal" text-decoration="normal" x="29.16796875" y="42" text-anchor="middle" dominant-baseline="alphabetic">    p...     </text></g></g><g id="_D215492A-FDBE-48E1-92C0-C434C38A79AC" bpmn2nodeid="_D215492A-FDBE-48E1-92C0-C434C38A79AC"><g><path fill="none" stroke="rgb(0,0,0)" paint-order="fill stroke markers" d=" M 123 129.5 L 164.00239100981833 130.23218555374675" stroke-miterlimit="10" stroke-dasharray=""/></g><g transform="matrix(1,0,0,1,123,129.5)"/><g transform="matrix(-0.017854296416883644,0.9998405993454447,-0.9998405993454447,-0.017854296416883644,179.08927148208443,125.50079700327278)"><path fill="rgb(0,0,0)" stroke="rgb(0,0,0)" paint-order="fill stroke markers" d=" M 10 15 L 0 15 L 5 0 Z" stroke-miterlimit="10" stroke-dasharray=""/></g><g transform="matrix(1,0,0,1,123.17854296416883,120.00159400654556)"/></g><g id="_59046CFA-34AA-4FE4-BB68-1617DAF10BC8" bpmn2nodeid="_59046CFA-34AA-4FE4-BB68-1617DAF10BC8"><g><path fill="none" stroke="rgb(0,0,0)" paint-order="fill stroke markers" d=" M 282 130.70682735047183 L 312.0001209642936 130.82730974703713" stroke-miterlimit="10" stroke-dasharray=""/></g><g transform="matrix(1,0,0,1,282,130.70682735047183)"/><g transform="matrix(-0.004016031305479831,0.9999919357137603,-0.9999919357137603,-0.004016031305479831,327.0200801565274,125.88759053805053)"><path fill="rgb(0,0,0)" stroke="rgb(0,0,0)" paint-order="fill stroke markers" d=" M 10 15 L 0 15 L 5 0 Z" stroke-miterlimit="10" stroke-dasharray=""/></g><g transform="matrix(1,0,0,1,282.0401603130548,120.79726942640798)"/></g><g transform="matrix(1,0,0,1,179,100)"/></g></g></svg>